HIERARCHY
ROOT Hips
{
  OFFSET -187.679 86.5976 -156.378
  CHANNELS 6 Xposition Yposition Zposition Zrotation Xrotation Yrotation
  JOINT LeftUpLeg
  {
    OFFSET 8.64259 1.95398 -2.38835
    CHANNELS 3 Zrotation Xrotation Yrotation
    JOINT LeftLeg
    {
      OFFSET 43.7702 0 0
      CHANNELS 3 Zrotation Xrotation Yrotation
      JOINT LeftFoot
      {
        OFFSET 40.6238 0 0
        CHANNELS 3 Zrotation Xrotation Yrotation
        JOINT LeftToeBase
        {
          OFFSET 12.7242 0 0
          CHANNELS 3 Zrotation Xrotation Yrotation
          End Site
          {
            OFFSET 0 0 0
          }
        }
      }
    }
  }
  JOINT RightUpLeg
  {
    OFFSET -8.2249 1.95398 -2.59336
    CHANNELS 3 Zrotation Xrotation Yrotation
    JOINT RightLeg
    {
      OFFSET 43.5653 0 0
      CHANNELS 3 Zrotation Xrotation Yrotation
      JOINT RightFoot
      {
        OFFSET 40.6238 0 0
        CHANNELS 3 Zrotation Xrotation Yrotation
        JOINT RightToeBase
        {
          OFFSET 12.7242 0 0
          CHANNELS 3 Zrotation Xrotation Yrotation
          End Site
          {
            OFFSET 0 0 0
          }
        }
      }
    }
  }
  JOINT Spine
  {
    OFFSET 0.165834 0.87714 6.61349
    CHANNELS 3 Zrotation Xrotation Yrotation
    JOINT Spine1
    {
      OFFSET 7.38963 1.71661e-005 0
      CHANNELS 3 Zrotation Xrotation Yrotation
      JOINT Spine2
      {
        OFFSET 11.9445 1.14441e-005 0
        CHANNELS 3 Zrotation Xrotation Yrotation
        JOINT Spine3
        {
          OFFSET 14.7254 4.19617e-005 0
          CHANNELS 3 Zrotation Xrotation Yrotation
          JOINT Spine4
          {
            OFFSET 10.9679 0 0
            CHANNELS 3 Zrotation Xrotation Yrotation
            JOINT RightShoulder
            {
              OFFSET 2.46616 -1.6653 3.69651
              CHANNELS 3 Zrotation Xrotation Yrotation
              JOINT RightArm
              {
                OFFSET 13.0012 0 0
                CHANNELS 3 Zrotation Xrotation Yrotation
                JOINT RightForeArm
                {
                  OFFSET 28.7848 1.52588e-005 0
                  CHANNELS 3 Zrotation Xrotation Yrotation
                  JOINT RightHand
                  {
                    OFFSET 26.5688 1.52588e-005 0
                    CHANNELS 3 Zrotation Xrotation Yrotation
                    End Site
                    {
                      OFFSET 0 0 0
                    }
                  }
                }
              }
            }
            JOINT LeftShoulder
            {
              OFFSET 2.38034 -1.29275 -3.7523
              CHANNELS 3 Zrotation Xrotation Yrotation
              JOINT LeftArm
              {
                OFFSET 16.3182 6.10352e-005 0
                CHANNELS 3 Zrotation Xrotation Yrotation
                JOINT LeftForeArm
                {
                  OFFSET 27.0901 0 0
                  CHANNELS 3 Zrotation Xrotation Yrotation
                  JOINT LeftHand
                  {
                    OFFSET 24.5451 1.52588e-005 0
                    CHANNELS 3 Zrotation Xrotation Yrotation
                    End Site
                    {
                      OFFSET 0 0 0
                    }
                  }
                }
              }
            }
            JOINT Neck
            {
              OFFSET 5.0226 -0.0266342 0
              CHANNELS 3 Zrotation Xrotation Yrotation
              JOINT Head
              {
                OFFSET 6.69363 2.86102e-005 0
                CHANNELS 3 Zrotation Xrotation Yrotation
                End Site
                {
                  OFFSET 0 0 0
                }
              }
            }
          }
        }
      }
    }
  }
}
MOTION
Frames:	10
Frame Time:	0.0416667
-158.09 78.791 -156.397 -69.1881 -67.8043 -69.3156 177.934 59.0091 131.707 -74.8763 21.8764 3.08171 78.9071 9.86813 0.611741 29.2647 -0.648307 2.6241 173.196 43.3869 66.5232 -71.2049 -8.12769 -4.37975 79.5214 -7.58964 3.39769 45.3974 2.64468 -1.4328 0.494201 9.63426 -90.5375 7.60769 0.753427 -1.09904 -4.06352 0.704327 -1.13115 -26.5981 1.04888 -0.821823 -6.58546 1.04889 -0.821825 82.8773 -45.381 -113.101 -0.35324 -36.6935 -32.3007 -40.0612 13.393 -82.9878 -3.95105 -0.143862 -0.874779 -90.3938 -41.7003 76.3551 -8.02943 22.4376 0.335069 18.6327 -19.5915 -113.614 3.47942 -0.0938412 -4.32591 38.997 1.85427 -0.368657 5.9178 2.09407 2.37538 
-152.976 80.1041 -151.307 -68.9646 -72.5708 -68.1487 -178.899 57.0986 126.042 -71.3747 27.499 2.81202 75.623 8.08044 -0.382858 32.9891 0.518065 3.88322 171.871 33.4966 63.9528 -61.1329 -7.39503 -5.47626 73.9021 -5.7929 3.39377 47.9487 3.31519 -4.68372 0.531126 9.46959 -90.436 7.93704 0.869643 -0.908888 -3.73396 0.828804 -0.946283 -26.2701 1.10259 -0.605495 -6.25749 1.10259 -0.605501 83.3147 -45.0187 -112.553 6.4248 -34.654 -26.0241 -37.5241 14.6735 -86.5119 -3.71296 -0.132619 -0.982015 -89.1897 -37.4546 77.2532 1.4845 24.245 -8.05858 15.6826 -19.3552 -115.538 4.57942 -0.0475905 -3.49925 35.8578 -1.57165 -4.58515 6.12133 0.879558 4.00811 
-147.08 83.5052 -145.023 -62.4589 -77.5253 -58.5744 -177.248 55.5666 120.251 -72.4212 27.8136 2.69084 73.5579 7.15413 -0.578785 28.0161 -0.896661 1.74657 170.101 19.9883 65.3342 -44.5458 -4.95231 -6.05188 59.3818 -1.98953 2.8514 50.0901 3.8573 -7.03952 0.40934 9.09905 -90.7271 8.67883 0.494349 -1.46733 -2.99291 0.429293 -1.48766 -25.5235 0.91246 -1.25098 -5.51087 0.912459 -1.25098 84.2699 -45.1534 -110.992 11.5148 -32.3306 -17.4917 -34.5459 16.9141 -92.8123 -3.10439 -0.0856776 -2.12078 -88.0234 -32.8011 78.0649 8.10174 24.2012 -19.2085 14.4574 -19.1913 -115.154 4.49018 -0.0254972 -3.0983 30.9277 -3.98179 -10.1385 5.43917 0.798017 6.55965 
-139.846 86.916 -137.764 -43.0433 -80.5632 -36.6714 -175.877 51.6051 113.765 -71.3405 25.8475 3.80597 76.1335 8.61291 -0.704886 29.0332 -0.789245 2.76335 170.51 12.5427 67.6795 -37.8023 -1.24665 -7.36878 57.1763 -0.161222 -0.936574 25.0108 -0.0998188 -2.22761 0.0478297 8.59837 -91.0701 9.66877 -0.388106 -2.08931 -2.00377 -0.479646 -2.07022 -24.5255 0.257616 -2.10938 -4.51282 0.257622 -2.10937 86.0266 -45.1224 -108.215 12.25 -31.5659 -11.0965 -32.9236 19.3296 -99.5702 -1.68459 -0.0345672 -4.38617 -87.7462 -29.1702 77.5711 11.3601 21.4289 -25.4072 11.3323 -17.6281 -116.749 5.85791 -0.169822 -5.32544 23.225 -3.97521 -16.1694 4.97551 2.27803 9.27275 
-132.399 89.4733 -131.432 -46.6846 -81.5909 -38.3999 -174.069 44.8783 108.455 -70.7959 19.2966 3.85318 81.0626 9.97255 -2.99907 26.9887 -1.23315 1.58655 171.61 11.7419 70.6237 -43.3138 -5.94951 -7.85323 62.8347 -1.72436 -3.14741 16.8825 -2.64181 1.87343 0.124491 8.56697 -91.3821 9.72743 -0.377062 -2.71165 -1.94628 -0.495994 -2.69247 -24.459 0.455023 -2.69967 -4.44639 0.455024 -2.69968 89.8631 -42.7385 -102.686 14.688 -31.6175 -8.40847 -31.7417 21.276 -105.3 0.468241 -0.0207499 -4.29746 -87.546 -25.7235 76.9045 13.823 15.5538 -27.9234 13.0653 -17.8282 -119.48 7.6803 -0.0544812 -3.82073 19.5692 -1.22889 -14.5554 4.8675 3.91803 9.28792 
-124.335 91.6714 -126.35 -64.679 -79.1022 -56.3276 -170.823 37.326 101.458 -67.5676 12.6023 1.77666 83.0177 10.8949 -1.64684 27.3254 -0.545297 -0.0657932 172.079 19.2488 72.9165 -53.9053 -5.19707 -5.40502 64.2468 -2.41862 -2.72294 18.255 -2.55266 2.26812 0.183843 8.64072 -91.4724 9.57934 -0.297644 -2.89664 -2.09475 -0.424791 -2.88076 -24.6046 0.586307 -2.85229 -4.59199 0.586302 -2.85229 90.4936 -41.8347 -101.876 12.6174 -33.3249 -8.48484 -26.0158 22.0831 -110.862 1.67581 -0.0222862 -5.21643 -86.9302 -25.6785 78.1412 13.5054 13.5468 -20.763 10.765 -15.6716 -121.765 6.33257 0.112383 -1.58821 18.1846 5.46917 -6.98963 3.8224 7.71543 6.60627 
-116.019 94.2364 -121.371 -71.9256 -71.498 -65.8414 -165.596 30.5588 95.148 -59.6853 10.6821 -4.11652 79.8754 9.9338 0.721342 27.8801 1.43812 -5.51236 173.647 31.144 76.9064 -62.863 -1.78659 -3.42443 70.3579 -4.3634 -3.20634 20.3397 -2.04486 1.9555 0.264576 8.50372 -91.1989 9.86057 -0.0163502 -2.37801 -1.81256 -0.12097 -2.37499 -24.3313 0.698915 -2.27309 -4.31867 0.698906 -2.27311 89.169 -42.2774 -103.976 5.73381 -38.1017 -12.9139 -24.0407 23.0393 -111.351 0.047406 -0.0282846 -4.70086 -85.786 -28.0656 81.1099 9.38137 15.5412 -7.36861 11.246 -16.0713 -124.916 7.11294 0.073219 -2.28628 15.6601 14.1363 3.07056 3.54899 12.9088 1.42537 
-108.289 96.1558 -116.675 -72.2161 -64.7084 -69.498 -162.04 27.1937 91.4503 -50.3885 20.9342 -10.0859 67.9469 4.18213 1.45011 36.7581 4.0007 -4.40476 173.103 40.2812 82.7161 -65.8233 -1.16846 -0.963043 71.1453 -4.34694 -0.858281 23.4867 -1.91871 3.24687 0.4107 8.47947 -90.7144 9.91734 0.494243 -1.45769 -1.75433 0.429618 -1.47803 -24.2853 0.909461 -1.24182 -4.27266 0.909468 -1.24182 86.7564 -44.8343 -107.135 -2.60487 -40.1553 -17.7804 -27.8763 24.7464 -109.706 -1.17044 -0.0332588 -3.94371 -85.7273 -31.4021 82.0118 3.98507 18.065 3.59358 13.967 -18.629 -126.146 5.61703 0.14069 -0.865943 15.8891 20.3213 10.5685 4.19887 16.7237 -1.95591 
-100.696 95.9424 -111.829 -68.8796 -63.04 -69.4602 -162.249 28.9439 88.9866 -51.8715 29.7798 -9.53602 63.1199 0.601371 -5.39305 43.8319 4.53413 6.24369 169.65 44.5711 87.2421 -65.1862 -6.85555 1.84387 69.2177 -3.47999 1.01369 29.1539 -0.772623 2.93349 0.452828 8.50908 -90.3411 9.85775 0.747825 -0.736956 -1.81322 0.714662 -0.769162 -24.3493 0.934733 -0.47813 -4.33661 0.934735 -0.47814 84.7154 -45.6401 -110.112 -5.53726 -38.9897 -17.4438 -29.6415 25.5325 -110.229 -1.23674 -0.0323389 -3.83131 -86.9024 -33.7497 80.3754 -3.99524 20.4754 7.95747 19.9931 -22.7785 -121.714 4.19966 0.0287284 -2.1764 17.3764 22.7448 13.4704 4.74777 18.0726 -2.98707 
-93.552 95.0168 -106.815 -64.9202 -65.8704 -67.5408 -163.523 34.3856 89.5264 -66.831 20.0697 -5.04749 69.9885 4.2579 -1.317 35.0297 1.92809 1.66838 167.063 43.1442 88.6098 -61.1024 -12.6247 3.7216 67.8698 -3.14653 2.55067 34.5975 0.506381 1.64649 0.342226 8.65634 -90.131 9.56213 0.623267 -0.307608 -2.1087 0.60912 -0.334741 -24.645 0.686899 -0.106064 -4.6324 0.686898 -0.106057 84.0241 -46.0989 -111.034 -7.52911 -37.4597 -19.1763 -25.95 23.9446 -110.274 -2.225 -0.0526418 -3.02835 -88.0944 -36.4209 78.8929 -11.514 21.3056 7.5624 22.6341 -22.3437 -115.397 7.26965 0.140661 -1.458 18.6199 22.9421 12.1643 5.38809 18.525 -1.83413 
